<?xml version="1.0" standalone="no"?><!DOCTYPE svg PUBLIC "-//W3C//DTD SVG 1.1//EN" "http://www.w3.org/Graphics/SVG/1.1/DTD/svg11.dtd"><svg t="1632106984911" class="icon" viewBox="0 0 1024 1024" version="1.1" xmlns="http://www.w3.org/2000/svg" p-id="11580" xmlns:xlink="http://www.w3.org/1999/xlink" width="200" height="200"><defs><style type="text/css"></style></defs><path d="M512 138.464c-51.328 48.164-83.497 116.543-83.497 192.481 0 146.075 118.477 264.551 264.551 264.551 75.938 0 144.317-32.168 192.481-83.497h71.895c0 246.094-199.512 445.43-445.43 445.43s-445.43-199.336-445.43-445.43 199.336-445.43 445.43-445.43v71.895zM122.117 512c0 215.332 174.55 389.883 389.883 389.883 192.481 0 351.914-139.57 383.731-322.91-55.195 45.176-125.684 72.422-202.675 72.422-176.836 0-320.273-143.438-320.273-320.273 0-76.992 27.246-147.48 72.422-202.676-183.339 31.641-323.086 191.075-323.086 383.555z" p-id="11581" fill="#1296db"></path></svg>