<?xml version="1.0" standalone="no"?><!DOCTYPE svg PUBLIC "-//W3C//DTD SVG 1.1//EN" "http://www.w3.org/Graphics/SVG/1.1/DTD/svg11.dtd"><svg t="1632106960557" class="icon" viewBox="0 0 1024 1024" version="1.1" xmlns="http://www.w3.org/2000/svg" p-id="10726" xmlns:xlink="http://www.w3.org/1999/xlink" width="200" height="200"><defs><style type="text/css"></style></defs><path d="M972.8 471.04h-50.255c-28.239 0-51.121 18.274-51.121 40.96s22.882 41.039 51.121 41.039H972.8c28.318 0 51.2-18.353 51.2-41.039s-22.882-40.96-51.2-40.96zM512 230.4A280.852 280.852 0 0 0 230.321 512 280.812 280.812 0 0 0 512 793.679 280.773 280.773 0 0 0 793.6 512 280.812 280.812 0 0 0 512 230.4z m0 486.4A204.8 204.8 0 1 1 716.8 512c0 113.23-91.648 204.8-204.8 204.8zM152.497 512c0-22.686-21.858-40.96-50.176-40.96H51.2C22.882 471.04 0 489.314 0 512s22.882 41.039 51.2 41.039h51.121c28.318 0 50.176-18.353 50.176-41.039zM512 153.679c22.607 0 40.96-22.883 40.96-51.2v-51.2C552.96 22.922 534.686 0 512 0s-41.039 22.882-41.039 51.2v51.2c0 28.318 18.432 51.279 41.039 51.279z m0 716.721c-22.607 0-41.039 22.882-41.039 51.2v51.121c0 28.475 18.353 51.279 41.039 51.279s40.96-22.882 40.96-51.2v-51.121c0-28.318-18.353-51.279-40.96-51.279z m377.068-677.534c19.968-20.046 23.158-49.23 7.286-65.142-15.99-16.03-45.134-12.8-65.142 7.208-5.435 5.592-30.326 30.326-35.84 35.84-19.968 19.968-23.237 49.152-7.246 65.181 15.95 16.03 45.134 12.8 65.142-7.247l35.8-35.84zM170.693 795.372c-5.514 5.475-30.326 30.405-35.84 35.84-19.929 19.968-23.158 49.074-7.286 65.064 16.03 15.95 45.213 12.8 65.181-7.208l35.84-35.84c19.968-19.968 23.158-49.152 7.208-65.102-15.99-15.951-45.174-12.682-65.064 7.246z m22.095-660.48c-20.008-20.086-49.152-23.276-65.142-7.246-16.109 15.99-12.722 45.134 7.246 65.142 5.514 5.592 30.248 30.365 35.84 35.918 20.008 19.89 49.152 23.198 65.064 7.247 16.03-16.03 12.878-45.135-7.208-65.181-5.435-5.514-30.326-30.326-35.8-35.88z m602.506 718.376c5.513 5.592 30.404 30.444 35.84 35.918 20.046 19.89 49.23 23.12 65.22 7.247 15.951-16.03 12.682-45.213-7.286-65.181-5.592-5.475-30.365-30.248-35.84-35.84-19.968-19.89-49.23-23.158-65.181-7.208-15.951 15.99-12.603 45.096 7.247 65.064z" p-id="10727" fill="#f4ea2a"></path></svg>